<svg width="29" height="29" viewBox="0 0 29 29" fill="none" xmlns="http://www.w3.org/2000/svg">
<g clip-path="url(#clip0_531_220)">
<path fill-rule="evenodd" clip-rule="evenodd" d="M3.70791 2.06202L3.71045 2.06201H21.2104L21.213 2.06202C22.1397 2.06471 23.0278 2.43405 23.6831 3.08937C24.3384 3.74469 24.7078 4.63272 24.7104 5.55947L24.7104 5.56201V6.43701H24.8204C26.6927 6.43701 28.2104 7.9548 28.2104 9.82709V22.3373C28.2105 22.3435 28.2105 22.3498 28.2104 22.356V23.1719C28.2104 25.0442 26.6927 26.562 24.8204 26.562H7.97553C6.10324 26.562 4.58545 25.0442 4.58545 23.1719V23.062H3.71045L3.70791 23.062C2.78115 23.0593 1.89312 22.69 1.23781 22.0347C0.582489 21.3793 0.213144 20.4913 0.210453 19.5646L0.210449 19.562V5.56201L0.210453 5.55947C0.213144 4.63272 0.582489 3.74469 1.23781 3.08937C1.89312 2.43405 2.78115 2.06471 3.70791 2.06202ZM26.4604 20.4866V9.82709C26.4604 8.9213 25.7262 8.18701 24.8204 8.18701H7.97553C7.06974 8.18701 6.33545 8.9213 6.33545 9.82709V19.5722L11.2701 15.2183L11.2708 15.2178C11.7585 14.7883 12.3909 14.5598 13.0405 14.5784C13.6901 14.5971 14.3085 14.8614 14.7707 15.3182L14.7718 15.3192L19.3477 19.8552L20.5842 18.6277L20.5862 18.6257C21.0387 18.1794 21.6404 17.9166 22.2752 17.888C22.9101 17.8594 23.533 18.0669 24.0238 18.4706L24.0257 18.4722L26.4604 20.4866ZM18.1057 21.0882L13.5408 16.5631L13.5405 16.5628C13.3934 16.4176 13.1969 16.3336 12.9903 16.3277C12.7838 16.3218 12.5826 16.3944 12.4275 16.5309L12.4273 16.5311L6.33545 21.906V23.1719C6.33545 24.0777 7.06974 24.812 7.97553 24.812H14.3547L18.1057 21.0882ZM16.8386 24.812L21.815 19.8716L21.8159 19.8708C21.9602 19.7289 22.1519 19.6453 22.3541 19.6362C22.5563 19.6271 22.7548 19.6931 22.9113 19.8215L22.9121 19.8222L26.4604 22.7578V23.1719C26.4604 24.0777 25.7262 24.812 24.8204 24.812H16.8386ZM22.9604 5.56351V6.43701H7.97553C6.10324 6.43701 4.58545 7.9548 4.58545 9.82709V21.312H3.71195C3.24793 21.3104 2.80337 21.1253 2.47524 20.7972C2.14714 20.4691 1.9621 20.0246 1.96045 19.5606V5.56341C1.9621 5.09943 2.14714 4.65491 2.47524 4.32681C2.80335 3.9987 3.24787 3.81366 3.71184 3.81201H21.2091C21.673 3.81366 22.1175 3.9987 22.4457 4.32681C22.7738 4.65493 22.9588 5.0995 22.9604 5.56351ZM19.7967 12.3236C19.7967 11.89 20.1524 11.5279 20.6044 11.5279C21.0565 11.5279 21.4122 11.89 21.4122 12.3236C21.4122 12.7571 21.0565 13.1193 20.6044 13.1193C20.1524 13.1193 19.7967 12.7571 19.7967 12.3236ZM20.6044 9.77786C19.1978 9.77786 18.0467 10.9117 18.0467 12.3236C18.0467 13.7354 19.1978 14.8693 20.6044 14.8693C22.0111 14.8693 23.1622 13.7354 23.1622 12.3236C23.1622 10.9117 22.0111 9.77786 20.6044 9.77786Z" fill="#1F1F1F"/>
</g>
<defs>
<clipPath id="clip0_531_220">
<rect width="28" height="28" fill="white" transform="translate(0.210449 0.312012)"/>
</clipPath>
</defs>
</svg>
