<svg width="29" height="29" viewBox="0 0 29 29" fill="none" xmlns="http://www.w3.org/2000/svg">
<path fill-rule="evenodd" clip-rule="evenodd" d="M4.3667 6.43701C4.00426 6.43701 3.71045 6.73082 3.71045 7.09326V8.40576C3.71045 8.7682 4.00426 9.06201 4.3667 9.06201H5.6792C6.04164 9.06201 6.33545 8.7682 6.33545 8.40576V7.09326C6.33545 6.73082 6.04164 6.43701 5.6792 6.43701H4.3667ZM4.3667 4.68701H24.0542C25.3831 4.68701 26.4604 5.76433 26.4604 7.09326V21.5308C26.4604 22.8597 25.3831 23.937 24.0542 23.937H4.3667C3.03776 23.937 1.96045 22.8597 1.96045 21.5308V7.09326C1.96045 5.76433 3.03776 4.68701 4.3667 4.68701ZM3.71045 11.4683V12.7808C3.71045 13.1432 4.00426 13.437 4.3667 13.437H5.6792C6.04164 13.437 6.33545 13.1432 6.33545 12.7808V11.4683C6.33545 11.1058 6.04164 10.812 5.6792 10.812H4.3667C4.00426 10.812 3.71045 11.1058 3.71045 11.4683ZM8.08545 12.7808C8.08545 13.1432 8.37926 13.437 8.7417 13.437H19.6792C20.0416 13.437 20.3354 13.1432 20.3354 12.7808V7.09326C20.3354 6.73082 20.0416 6.43701 19.6792 6.43701H8.7417C8.37926 6.43701 8.08545 6.73082 8.08545 7.09326V12.7808ZM22.7417 6.43701C22.3793 6.43701 22.0854 6.73082 22.0854 7.09326V8.40576C22.0854 8.7682 22.3793 9.06201 22.7417 9.06201H24.0542C24.4166 9.06201 24.7104 8.7682 24.7104 8.40576V7.09326C24.7104 6.73083 24.4166 6.43701 24.0542 6.43701H22.7417ZM24.7104 11.4683C24.7104 11.1058 24.4166 10.812 24.0542 10.812H22.7417C22.3793 10.812 22.0854 11.1058 22.0854 11.4683V12.7808C22.0854 13.1432 22.3793 13.437 22.7417 13.437H24.0542C24.4166 13.437 24.7104 13.1432 24.7104 12.7808V11.4683ZM24.7104 15.8433C24.7104 15.4808 24.4166 15.187 24.0542 15.187H22.7417C22.3793 15.187 22.0854 15.4808 22.0854 15.8433V17.1558C22.0854 17.5182 22.3793 17.812 22.7417 17.812H24.0542C24.4166 17.812 24.7104 17.5182 24.7104 17.1558V15.8433ZM24.7104 20.2183C24.7104 19.8558 24.4166 19.562 24.0542 19.562H22.7417C22.3793 19.562 22.0854 19.8558 22.0854 20.2183V21.5308C22.0854 21.8932 22.3793 22.187 22.7417 22.187H24.0542C24.4166 22.187 24.7104 21.8932 24.7104 21.5308V20.2183ZM19.6792 22.187C20.0416 22.187 20.3354 21.8932 20.3354 21.5308V15.8433C20.3354 15.4808 20.0416 15.187 19.6792 15.187H8.7417C8.37926 15.187 8.08545 15.4808 8.08545 15.8433V21.5308C8.08545 21.8932 8.37926 22.187 8.7417 22.187H19.6792ZM6.33545 17.1558V15.8433C6.33545 15.4808 6.04164 15.187 5.6792 15.187H4.3667C4.00426 15.187 3.71045 15.4808 3.71045 15.8433V17.1558C3.71045 17.5182 4.00426 17.812 4.3667 17.812H5.6792C6.04164 17.812 6.33545 17.5182 6.33545 17.1558ZM5.6792 19.562H4.3667C4.00426 19.562 3.71045 19.8558 3.71045 20.2183V21.5308C3.71045 21.8932 4.00426 22.187 4.3667 22.187H5.6792C6.04164 22.187 6.33545 21.8932 6.33545 21.5308V20.2183C6.33545 19.8558 6.04164 19.562 5.6792 19.562Z" fill="#1F1F1F"/>
</svg>
