<svg width="29" height="29" viewBox="0 0 29 29" fill="none" xmlns="http://www.w3.org/2000/svg">
<path fill-rule="evenodd" clip-rule="evenodd" d="M4.14541 2.06202L4.14795 2.06201H19.0229L19.0255 2.06202C19.6045 2.0637 20.1592 2.29444 20.5686 2.70383C20.978 3.11323 21.2088 3.668 21.2104 4.24697L21.2104 4.24951V6.43701H24.2729C24.8531 6.43701 25.4095 6.66748 25.8197 7.07772C26.23 7.48795 26.4604 8.04435 26.4604 8.62451V23.062C26.4604 23.9903 26.0917 24.8805 25.4353 25.5369C24.7789 26.1933 23.8887 26.562 22.9604 26.562H5.02295L5.02034 26.562C4.20955 26.5596 3.43266 26.2364 2.85935 25.6631C2.28603 25.0898 1.96287 24.3129 1.96045 23.5021L1.96045 23.4995V4.24951L1.96045 4.24697C1.96213 3.668 2.19287 3.11323 2.60227 2.70383C3.01166 2.29444 3.56644 2.0637 4.14541 2.06202ZM19.9293 24.812H5.02457C4.67646 24.8107 4.34296 24.6719 4.09678 24.4257C3.85065 24.1795 3.71179 23.8461 3.71045 23.498V4.25112C3.71103 4.13485 3.75747 4.0235 3.83971 3.94127C3.92194 3.85904 4.03329 3.8126 4.14956 3.81201H19.0213C19.1376 3.8126 19.249 3.85904 19.3312 3.94127C19.4134 4.02352 19.4599 4.1349 19.4604 4.25119V23.062C19.4604 23.6817 19.6248 24.2845 19.9293 24.812ZM21.2104 23.062C21.2104 23.5261 21.3948 23.9713 21.723 24.2994C22.0512 24.6276 22.4963 24.812 22.9604 24.812C23.4246 24.812 23.8697 24.6276 24.1979 24.2994C24.5261 23.9713 24.7104 23.5261 24.7104 23.062V8.62451C24.7104 8.50848 24.6644 8.3972 24.5823 8.31515C24.5003 8.23311 24.389 8.18701 24.2729 8.18701H21.2104V23.062ZM12.4604 7.31201C12.4604 6.82876 12.8522 6.43701 13.3354 6.43701H16.8354C17.3187 6.43701 17.7104 6.82876 17.7104 7.31201C17.7104 7.79526 17.3187 8.18701 16.8354 8.18701H13.3354C12.8522 8.18701 12.4604 7.79526 12.4604 7.31201ZM12.4604 10.812C12.4604 10.3288 12.8522 9.93701 13.3354 9.93701H16.8354C17.3187 9.93701 17.7104 10.3288 17.7104 10.812C17.7104 11.2953 17.3187 11.687 16.8354 11.687H13.3354C12.8522 11.687 12.4604 11.2953 12.4604 10.812ZM5.46045 14.312C5.46045 13.8288 5.8522 13.437 6.33545 13.437H16.8354C17.3187 13.437 17.7104 13.8288 17.7104 14.312C17.7104 14.7953 17.3187 15.187 16.8354 15.187H6.33545C5.8522 15.187 5.46045 14.7953 5.46045 14.312ZM5.46045 17.812C5.46045 17.3288 5.8522 16.937 6.33545 16.937H16.8354C17.3187 16.937 17.7104 17.3288 17.7104 17.812C17.7104 18.2953 17.3187 18.687 16.8354 18.687H6.33545C5.8522 18.687 5.46045 18.2953 5.46045 17.812ZM5.46045 21.312C5.46045 20.8288 5.8522 20.437 6.33545 20.437H16.8354C17.3187 20.437 17.7104 20.8288 17.7104 21.312C17.7104 21.7953 17.3187 22.187 16.8354 22.187H6.33545C5.8522 22.187 5.46045 21.7953 5.46045 21.312Z" fill="#1F1F1F"/>
<path d="M9.83545 11.687H6.33545C6.10338 11.687 5.88083 11.5948 5.71673 11.4307C5.55264 11.2666 5.46045 11.0441 5.46045 10.812V7.31201C5.46045 7.07995 5.55264 6.85739 5.71673 6.69329C5.88083 6.5292 6.10338 6.43701 6.33545 6.43701H9.83545C10.0675 6.43701 10.2901 6.5292 10.4542 6.69329C10.6183 6.85739 10.7104 7.07995 10.7104 7.31201V10.812C10.7104 11.0441 10.6183 11.2666 10.4542 11.4307C10.2901 11.5948 10.0675 11.687 9.83545 11.687Z" fill="#1F1F1F"/>
</svg>
