<svg width="26" height="26" viewBox="0 0 26 26" fill="none" xmlns="http://www.w3.org/2000/svg">
<path d="M1.61886 0.116789C0.958583 0.345346 0.486233 0.777063 0.171333 1.4475L0.0291202 1.75224L0.0138831 9.59935C-0.00135405 18.3708 -0.0267492 17.7868 0.359257 18.3759C0.709711 18.9143 1.19222 19.2648 1.81694 19.4273C2.25374 19.5441 23.7533 19.5441 24.1952 19.4273C24.825 19.2648 25.3024 18.9194 25.6579 18.3759C26.0389 17.7868 26.0135 18.3708 25.9982 9.59935L25.983 1.75224L25.8408 1.4475C25.5208 0.771984 25.0078 0.304714 24.3475 0.101553C24.0225 -2.86102e-05 23.8904 -2.86102e-05 12.9857 -2.86102e-05L1.95915 0.00505066L1.61886 0.116789ZM24.0326 1.69129C24.2764 1.85382 24.4237 2.09761 24.4593 2.40236C24.4745 2.54965 24.4847 5.95768 24.4745 9.98027C24.4593 18.1626 24.4897 17.4566 24.0936 17.7614L23.9107 17.9036H13.0061H2.10137L1.91852 17.7614C1.52236 17.4566 1.55283 18.1626 1.53759 9.98027C1.52744 5.95768 1.53759 2.54965 1.55283 2.40236C1.58838 2.09761 1.73568 1.85382 1.97947 1.69129L2.15216 1.57447H13.0061H23.8599L24.0326 1.69129Z" fill="#1F1F1F"/>
<path d="M7.36789 5.75955C5.73752 6.11001 4.46776 7.33405 4.1427 8.88316C3.99033 9.60438 4.06652 10.5745 4.33063 11.2246C4.68616 12.1083 5.45309 12.9311 6.33685 13.3781C6.69238 13.5559 7.36789 13.7438 7.80469 13.7844C8.27196 13.8301 8.95255 13.7438 9.38935 13.5863L9.73472 13.4644L10.1055 13.5863C10.8216 13.8301 11.8628 13.8352 12.6145 13.5965L13.0056 13.4695L13.4018 13.5965C14.1484 13.8352 15.1744 13.8301 15.9108 13.5914L16.2918 13.4644L16.6219 13.5863C17.7748 14.0028 19.1716 13.7895 20.2483 13.0226C20.7867 12.6467 21.259 12.088 21.5384 11.509C21.8685 10.8284 21.965 10.3408 21.9346 9.55359C21.9142 9.07108 21.8787 8.87808 21.7466 8.48191C21.0203 6.33348 18.7449 5.1907 16.6117 5.90684L16.2714 6.01858L15.9413 5.90684C15.7585 5.84082 15.3877 5.76463 15.1185 5.72908C14.5293 5.65289 13.8538 5.724 13.3459 5.90684L13.0209 6.02366L12.6704 5.90684C11.873 5.63766 10.8572 5.63766 10.0699 5.90684L9.7398 6.01858L9.303 5.87637C8.77478 5.6986 7.90627 5.64781 7.36789 5.75955ZM8.02816 7.42548C7.83008 7.72514 7.5355 8.40065 7.439 8.76126C7.32218 9.23361 7.3171 10.2037 7.43392 10.6761C7.54566 11.1382 7.73866 11.6004 7.95198 11.9204L8.12975 12.1896H7.93674C7.83008 12.1896 7.61168 12.1541 7.44408 12.1134C5.60546 11.6309 5.03153 9.1879 6.45874 7.9029C6.83459 7.56769 7.52534 7.28326 8.01801 7.26803L8.1399 7.26295L8.02816 7.42548ZM11.2534 7.51182C10.6794 8.30923 10.4509 9.69073 10.7201 10.7472C10.8166 11.1281 11.1264 11.829 11.3092 12.0728C11.3905 12.1896 11.3905 12.1896 11.1975 12.1896C10.9283 12.1896 10.5067 12.0728 10.1817 11.9052C9.87185 11.7477 9.36395 11.2449 9.2065 10.9402C8.58178 9.71104 9.04397 8.15686 10.2121 7.56769C10.522 7.41024 11.0096 7.2731 11.2889 7.26803L11.4311 7.26295L11.2534 7.51182ZM14.4836 7.56769C13.6913 8.78666 13.6659 10.5897 14.4227 11.8341L14.6258 12.1642L14.4481 12.1795C14.3516 12.1896 14.1433 12.1591 13.9859 12.1134C12.8786 11.7934 12.193 10.8843 12.193 9.75675C12.1981 9.27424 12.259 8.99998 12.4571 8.59365C12.7669 7.96385 13.3815 7.50166 14.123 7.34421C14.7071 7.21724 14.7122 7.21724 14.4836 7.56769ZM18.5672 7.37469C18.9379 7.46611 19.4458 7.77085 19.7099 8.05528C20.5835 9.02029 20.5835 10.478 19.6998 11.4074C19.1817 11.956 18.6129 12.1998 17.8815 12.1998C17.1958 12.1947 16.6371 11.9611 16.1546 11.4684C15.6823 10.991 15.4436 10.4221 15.4436 9.77707C15.4436 8.10607 16.9317 6.9582 18.5672 7.37469Z" fill="#1F1F1F"/>
<path d="M4.95531 21.3015C4.31535 21.5046 3.78713 21.9516 3.50271 22.5255L3.34018 22.8557H1.92313C0.353706 22.8557 0.302915 22.8658 0.109912 23.1756C-0.0323009 23.4042 -0.03738 23.8359 0.099754 24.0441C0.318152 24.3743 0.338469 24.3794 1.91297 24.3794H3.34018L3.50271 24.7095C3.80745 25.3241 4.42709 25.8117 5.08737 25.9539C5.48861 26.0453 6.20475 25.9945 6.56536 25.8574C7.12914 25.639 7.57101 25.2174 7.86052 24.6282L7.97734 24.3794H16.7539C25.2613 24.3794 25.5305 24.3743 25.6727 24.2829C25.9063 24.1254 26.0079 23.9273 26.0079 23.6226C26.0079 23.4347 25.9774 23.2975 25.9012 23.1756C25.6879 22.8303 26.4092 22.8557 16.7437 22.8557H7.98242L7.81989 22.5204C7.53038 21.9363 6.96153 21.4691 6.33173 21.3015C6.01175 21.2151 5.22958 21.2151 4.95531 21.3015ZM6.08286 22.8963C6.37744 23.0588 6.55013 23.4397 6.4841 23.7953C6.43839 24.034 6.12857 24.354 5.86954 24.4251C5.37687 24.5622 4.82833 24.1457 4.82833 23.6378C4.82833 22.9979 5.514 22.5915 6.08286 22.8963Z" fill="#1F1F1F"/>
</svg>
