<svg width="150" height="150" viewBox="0 0 150 150" fill="none" xmlns="http://www.w3.org/2000/svg">
<path d="M141.653 18.1864H128.777V2.27413C128.775 1.67153 128.535 1.09411 128.109 0.668011C127.683 0.241906 127.105 0.00174921 126.503 0L23.4839 0C22.8825 0.00349434 22.3067 0.244422 21.8821 0.670338C21.4574 1.09625 21.2181 1.67268 21.2164 2.27413V18.1864H8.33407C6.12428 18.1882 4.00549 19.0668 2.44293 20.6294C0.880371 22.1919 0.0017559 24.3107 0 26.5205L0 123.479C0.00350676 125.689 0.882684 127.806 2.44487 129.369C4.00705 130.931 6.12481 131.81 8.33407 131.814H45.4628V145.445H29.5505C28.9473 145.445 28.3689 145.685 27.9424 146.111C27.5159 146.538 27.2763 147.116 27.2763 147.719C27.2763 148.322 27.5159 148.901 27.9424 149.327C28.3689 149.754 28.9473 149.993 29.5505 149.993H120.45C121.053 149.993 121.631 149.754 122.058 149.327C122.484 148.901 122.724 148.322 122.724 147.719C122.724 147.116 122.484 146.538 122.058 146.111C121.631 145.685 121.053 145.445 120.45 145.445H104.537V131.814H141.666C143.875 131.81 145.993 130.931 147.555 129.369C149.117 127.806 149.996 125.689 150 123.479V26.5205C149.999 25.4252 149.783 24.3408 149.363 23.3292C148.943 22.3176 148.327 21.3986 147.552 20.6247C146.777 19.8508 145.857 19.2372 144.845 18.8188C143.833 18.4004 142.748 18.1856 141.653 18.1864ZM25.7514 4.54827H124.229V109.085H25.7514V4.54827ZM4.54827 26.5205C4.55002 25.517 4.94944 24.5551 5.65904 23.8455C6.36864 23.1359 7.33055 22.7365 8.33407 22.7347H21.2164V109.085H4.54827V26.5205ZM100.022 145.452H49.9978V131.814H99.9889L100.022 145.452ZM145.472 123.486C145.472 123.983 145.374 124.476 145.183 124.935C144.993 125.394 144.714 125.812 144.363 126.163C144.011 126.515 143.594 126.793 143.135 126.984C142.675 127.174 142.183 127.272 141.686 127.272H8.33407C7.83691 127.272 7.34462 127.174 6.88531 126.984C6.42599 126.793 6.00865 126.515 5.6571 126.163C5.30556 125.812 5.0267 125.394 4.83644 124.935C4.64619 124.476 4.54827 123.983 4.54827 123.486V113.627H145.438L145.472 123.486ZM145.472 109.092H128.777V22.7281H141.653C142.657 22.7298 143.62 23.1302 144.33 23.8412C145.04 24.5522 145.438 25.5158 145.438 26.5205L145.472 109.092ZM88.5321 12.7961C88.7965 12.5419 89.1189 12.356 89.4714 12.2546C89.8239 12.1533 90.1958 12.1394 90.5549 12.2143C90.9139 12.2892 91.2493 12.4506 91.5318 12.6844C91.8144 12.9183 92.0356 13.2176 92.1763 13.5563C92.317 13.895 92.373 14.263 92.3392 14.6282C92.3055 14.9934 92.1832 15.3449 91.9829 15.6522C91.7826 15.9594 91.5103 16.2132 91.1897 16.3914C90.8691 16.5696 90.5099 16.6669 90.1432 16.6748C89.698 16.6656 89.2651 16.5271 88.8973 16.2761C88.5295 16.0251 88.2427 15.6725 88.0719 15.2612C87.9011 14.85 87.8536 14.398 87.9353 13.9602C88.0171 13.5225 88.2244 13.118 88.5321 12.7961ZM102.256 12.1331C102.837 12.1645 103.384 12.4175 103.785 12.8399C104.185 13.2623 104.408 13.8221 104.408 14.4039C104.408 14.9858 104.185 15.5456 103.785 15.968C103.384 16.3904 102.837 16.6434 102.256 16.6748C101.675 16.6434 101.129 16.3904 100.728 15.968C100.328 15.5456 100.105 14.9858 100.105 14.4039C100.105 13.8221 100.328 13.2623 100.728 12.8399C101.129 12.4175 101.675 12.1645 102.256 12.1331ZM115.987 16.0051C113.952 18.1268 110.683 14.8382 112.772 12.7961C114.86 10.7541 118.096 13.9233 115.987 16.0051ZM111.346 28.788H81.0467C80.7381 28.8047 80.4295 28.7583 80.1394 28.6517C79.8494 28.5451 79.5842 28.3806 79.3599 28.1681C79.1356 27.9556 78.9569 27.6996 78.8348 27.4157C78.7128 27.1319 78.6498 26.8262 78.6498 26.5172C78.6498 26.2082 78.7128 25.9025 78.8348 25.6186C78.9569 25.3348 79.1356 25.0788 79.3599 24.8663C79.5842 24.6538 79.8494 24.4892 80.1394 24.3827C80.4295 24.2761 80.7381 24.2297 81.0467 24.2464H111.386C111.967 24.2778 112.514 24.5307 112.914 24.9531C113.314 25.3756 113.538 25.9353 113.538 26.5172C113.538 27.0991 113.314 27.6588 112.914 28.0812C112.514 28.5037 111.967 28.7566 111.386 28.788H111.346ZM111.346 45.7611H81.0467C80.4435 45.7611 79.8651 45.5215 79.4386 45.0951C79.0121 44.6686 78.7725 44.0901 78.7725 43.487C78.7725 42.8839 79.0121 42.3054 79.4386 41.8789C79.8651 41.4525 80.4435 41.2129 81.0467 41.2129H111.386C111.958 41.2566 112.491 41.5145 112.881 41.9349C113.27 42.3553 113.487 42.9073 113.487 43.4804C113.487 44.0535 113.27 44.6054 112.881 45.0259C112.491 45.4463 111.958 45.7041 111.386 45.7479L111.346 45.7611ZM81.0467 62.7276C80.4435 62.7276 79.8651 62.488 79.4386 62.0615C79.0121 61.6351 78.7725 61.0566 78.7725 60.4535C78.7725 59.8504 79.0121 59.2719 79.4386 58.8454C79.8651 58.419 80.4435 58.1794 81.0467 58.1794H102.263C102.866 58.1794 103.445 58.419 103.871 58.8454C104.298 59.2719 104.537 59.8504 104.537 60.4535C104.537 61.0566 104.298 61.6351 103.871 62.0615C103.445 62.488 102.866 62.7276 102.263 62.7276H81.0467ZM111.386 79.6941H68.6881C68.085 79.6941 67.5065 79.4545 67.0801 79.028C66.6536 78.6016 66.414 78.0231 66.414 77.42C66.414 76.8168 66.6536 76.2384 67.0801 75.8119C67.5065 75.3855 68.085 75.1459 68.6881 75.1459H111.386C111.989 75.1459 112.568 75.3855 112.994 75.8119C113.421 76.2384 113.66 76.8168 113.66 77.42C113.66 78.0231 113.421 78.6016 112.994 79.028C112.568 79.4545 111.989 79.6941 111.386 79.6941ZM38.6338 75.1459H56.5682C57.1714 75.1459 57.7498 75.3855 58.1763 75.8119C58.6028 76.2384 58.8424 76.8168 58.8424 77.42C58.8424 78.0231 58.6028 78.6016 58.1763 79.028C57.7498 79.4545 57.1714 79.6941 56.5682 79.6941H38.6669C38.0638 79.6985 37.4836 79.4631 37.054 79.0398C36.6244 78.6164 36.3806 78.0397 36.3762 77.4366C36.3718 76.8334 36.6072 76.2532 37.0305 75.8236C37.4539 75.3941 38.0306 75.1502 38.6338 75.1459ZM102.283 96.6606H84.8656C84.2846 96.6292 83.7377 96.3763 83.3375 95.9538C82.9373 95.5314 82.7142 94.9717 82.7142 94.3898C82.7142 93.8079 82.9373 93.2482 83.3375 92.8257C83.7377 92.4033 84.2846 92.1504 84.8656 92.119H102.29C102.871 92.1536 103.416 92.4097 103.814 92.8344C104.212 93.2592 104.432 93.8204 104.428 94.4024C104.425 94.9844 104.199 95.5429 103.796 95.963C103.393 96.3831 102.844 96.6328 102.263 96.6606H102.283ZM72.7391 96.6606H38.6338C38.0527 96.6292 37.5058 96.3763 37.1056 95.9538C36.7054 95.5314 36.4824 94.9717 36.4824 94.3898C36.4824 93.8079 36.7054 93.2482 37.1056 92.8257C37.5058 92.4033 38.0527 92.1504 38.6338 92.119H72.7192C73.3003 92.1504 73.8472 92.4033 74.2474 92.8257C74.6476 93.2482 74.8706 93.8079 74.8706 94.3898C74.8706 94.9717 74.6476 95.5314 74.2474 95.9538C73.8472 96.3763 73.3003 96.6292 72.7192 96.6606H72.7391ZM38.6338 62.7276H68.9533C69.5571 62.7259 70.1355 62.4848 70.5618 62.0573C70.9881 61.6297 71.2275 61.0506 71.2275 60.4469V26.5205C71.2257 25.9185 70.9853 25.3418 70.559 24.9167C70.1327 24.4917 69.5553 24.253 68.9533 24.253H38.6338C38.3354 24.2521 38.0398 24.3101 37.764 24.4237C37.4881 24.5373 37.2374 24.7041 37.0261 24.9148C36.8148 25.1254 36.6472 25.3757 36.5329 25.6512C36.4185 25.9268 36.3596 26.2222 36.3596 26.5205V60.4469C36.3587 60.7461 36.4169 61.0425 36.5308 61.3192C36.6447 61.5958 36.8121 61.8473 37.0233 62.0592C37.2346 62.2711 37.4856 62.4392 37.7619 62.5539C38.0383 62.6686 38.3345 62.7276 38.6338 62.7276ZM40.9079 28.788H66.6593V58.1794H40.9079V28.788Z" fill="black"/>
</svg>
