<svg width="111" height="150" viewBox="0 0 111 150" fill="none" xmlns="http://www.w3.org/2000/svg">
<path d="M55.7432 73.9865C39.0204 73.9865 25.3378 87.6688 25.3378 104.392C25.3378 121.115 39.0204 134.797 55.7432 134.797C72.4661 134.797 86.1486 121.115 86.1486 104.392C86.1486 87.6688 72.4661 73.9865 55.7432 73.9865ZM55.7432 129.73C41.5541 129.73 30.4054 118.581 30.4054 104.392C30.4054 90.2027 41.5541 79.054 55.7432 79.054C69.9324 79.054 81.0811 90.2027 81.0811 104.392C81.0811 118.581 69.4258 129.73 55.7432 129.73Z" fill="black"/>
<path d="M110.98 11.1486L106.419 9.62825L83.1081 67.9054C77.5337 63.8514 71.4526 60.8108 64.358 59.7973L87.6688 2.02703L83.1081 0L59.2904 58.7838C58.2769 58.7838 56.7568 58.7838 55.743 58.7838C54.7292 58.7838 53.2093 58.7838 52.1956 58.7838L28.3784 0L23.3108 2.02703L46.6216 59.7973C39.527 61.3177 33.4459 63.8514 27.8715 67.9054L4.56068 9.62825L0 11.1486L24.3243 70.946C15.2027 79.561 10.1351 91.2162 10.1351 104.392C10.1351 129.73 30.4054 150 55.7433 150C81.0811 150 101.351 129.73 101.351 104.392C101.351 91.2162 95.7772 79.5609 87.1622 71.4528L110.98 11.1486ZM96.2838 104.392C96.2838 126.689 78.0406 144.932 55.7433 144.932C33.446 144.932 15.2027 126.689 15.2027 104.392C15.2027 82.0949 33.446 63.8514 55.7433 63.8514C78.0406 63.8514 96.2838 82.0946 96.2838 104.392Z" fill="black"/>
</svg>
