<svg width="150" height="150" viewBox="0 0 150 150" fill="none" xmlns="http://www.w3.org/2000/svg">
<g clip-path="url(#clip0_1_462)">
<path d="M149.788 146.778L122.517 86.1916C122.253 85.6699 121.797 85.27 121.246 85.0751C120.694 84.8802 120.089 84.9053 119.556 85.1451C119.022 85.385 118.602 85.8211 118.381 86.363C118.161 86.9048 118.158 87.5107 118.373 88.0547L143.569 144.04L101.273 130.812L96.1412 96.7468C107.294 82.0544 119.049 62.2701 119.049 44.0771C119.121 38.2437 118.034 32.4542 115.851 27.0442C113.668 21.6342 110.433 16.7113 106.333 12.561C102.233 8.41068 97.3497 5.11549 91.9667 2.86649C86.5836 0.617486 80.8076 -0.540588 74.9736 -0.540588C69.1395 -0.540588 63.3635 0.617486 57.9805 2.86649C52.5974 5.11549 47.7143 8.41068 43.6144 12.561C39.5145 16.7113 36.2793 21.6342 34.0964 27.0442C31.9135 32.4542 30.8263 38.2437 30.8978 44.0771C30.8978 63.3044 44.0327 84.3153 55.7155 99.2066L48.9259 144.596L5.33756 128.247L28.2059 77.4465C28.4208 76.9025 28.4178 76.2966 28.1975 75.7548C27.9773 75.2129 27.5567 74.7768 27.0232 74.5369C26.4898 74.2971 25.8844 74.272 25.3329 74.4669C24.7814 74.6618 24.3262 75.0617 24.0619 75.5834L0.198988 128.624C0.0758445 128.91 0.0123291 129.218 0.0123291 129.529C0.0123291 129.841 0.0758445 130.149 0.198988 130.434C0.323889 130.722 0.505791 130.981 0.733709 131.197C0.961628 131.412 1.23083 131.579 1.52507 131.688L49.9537 149.841C50.4288 150.016 50.9484 150.03 51.4322 149.881L99.2376 134.943L147.043 149.881C147.46 150.003 147.903 150.005 148.321 149.884C148.739 149.764 149.114 149.527 149.402 149.202C149.69 148.876 149.879 148.475 149.948 148.046C150.016 147.617 149.961 147.177 149.788 146.778ZM35.4662 44.0771C37.3227 -8.24789 112.677 -8.228 114.527 44.0771C114.527 72.3877 82.5289 106.553 74.9968 114.204C67.458 106.553 35.4662 72.4076 35.4662 44.0771ZM53.5407 144.457L59.6076 104.013C68.3266 113.76 71.8075 118.673 74.9968 119.694C78.3518 118.533 82.6615 112.798 92.3022 101.666L96.6981 130.978L53.5407 144.457ZM103.024 44.4683C102.91 37.1092 99.9074 30.0899 94.6631 24.9258C89.4187 19.7617 82.3537 16.8672 74.9934 16.8672C67.6332 16.8672 60.5682 19.7617 55.3238 24.9258C50.0795 30.0899 47.0765 37.1092 46.9633 44.4683C47.0765 51.8273 50.0795 58.8466 55.3238 64.0107C60.5682 69.1748 67.6332 72.0693 74.9934 72.0693C82.3537 72.0693 89.4187 69.1748 94.6631 64.0107C99.9074 58.8466 102.91 51.8273 103.024 44.4683ZM65.0114 48.7712C64.7715 48.5931 64.4989 48.4639 64.2091 48.3912C63.9193 48.3184 63.6181 48.3035 63.3225 48.3472C63.027 48.3909 62.7429 48.4924 62.4866 48.6459C62.2303 48.7995 62.0068 49.002 61.8287 49.2419C59.4849 52.931 58.5132 57.3269 59.0838 61.6602C55.6163 58.4589 53.195 54.2863 52.1363 49.6875C51.0775 45.0886 51.4306 40.2774 53.1493 35.8823C54.868 31.4872 57.8725 27.7127 61.7701 25.0519C65.6678 22.3911 70.2774 20.9677 74.9968 20.9677C79.7161 20.9677 84.3257 22.3911 88.2234 25.0519C92.1211 27.7127 95.1255 31.4872 96.8442 35.8823C98.5629 40.2774 98.916 45.0886 97.8573 49.6875C96.7985 54.2863 94.3773 58.4589 90.9098 61.6602C91.4914 57.3291 90.5264 52.9316 88.1847 49.2419C87.8213 48.7718 87.2883 48.4626 86.6998 48.3805C86.1113 48.2983 85.514 48.4498 85.0357 48.8024C84.5574 49.155 84.2362 49.6808 84.1407 50.2673C84.0452 50.8537 84.183 51.4543 84.5247 51.9404C87.1768 54.9372 86.242 61.3154 86.3812 64.9951C82.8981 66.9079 78.9879 67.9091 75.0141 67.9056C71.0403 67.9021 67.1319 66.8941 63.6521 64.9752V57.7484C63.6385 55.6644 64.2887 53.6301 65.5086 51.9404C65.685 51.7 65.8122 51.4271 65.8827 51.1374C65.9532 50.8477 65.9657 50.5469 65.9195 50.2523C65.8733 49.9578 65.7692 49.6753 65.6134 49.4211C65.4575 49.1669 65.2529 48.946 65.0114 48.7712ZM74.9968 49.8387C77.5648 49.772 80.0052 48.7051 81.798 46.8653C83.5907 45.0255 84.594 42.5584 84.594 39.9896C84.594 37.4208 83.5907 34.9537 81.798 33.1139C80.0052 31.2741 77.5648 30.2072 74.9968 30.1405C72.4288 30.2072 69.9883 31.2741 68.1956 33.1139C66.4028 34.9537 65.3995 37.4208 65.3995 39.9896C65.3995 42.5584 66.4028 45.0255 68.1956 46.8653C69.9883 48.7051 72.4288 49.772 74.9968 49.8387ZM74.9968 34.6888C76.4036 34.6888 77.7527 35.2476 78.7475 36.2424C79.7422 37.2371 80.3011 38.5862 80.3011 39.9929C80.3011 41.3997 79.7422 42.7488 78.7475 43.7435C77.7527 44.7382 76.4036 45.297 74.9968 45.297C73.59 45.297 72.2408 44.7382 71.246 43.7435C70.2513 42.7488 69.6924 41.3997 69.6924 39.9929C69.6924 38.5862 70.2513 37.2371 71.246 36.2424C72.2408 35.2476 73.59 34.6888 74.9968 34.6888Z" fill="black"/>
</g>
<defs>
<clipPath id="clip0_1_462">
<rect width="150" height="150" fill="white"/>
</clipPath>
</defs>
</svg>
