<svg width="155" height="150" viewBox="0 0 155 150" fill="none" xmlns="http://www.w3.org/2000/svg">
<g clip-path="url(#clip0_1_477)">
<path d="M152.166 96.9675H138.907V50.7514C138.907 50.1493 138.661 49.5719 138.223 49.1455C137.786 48.7192 137.192 48.4788 136.572 48.4771H102.249C101.628 48.4771 101.032 48.7167 100.593 49.1432C100.154 49.5697 99.9072 50.1482 99.9072 50.7514C99.9072 51.3546 100.154 51.9331 100.593 52.3596C101.032 52.7861 101.628 53.0257 102.249 53.0257H130.741L77.2871 102.756L23.8265 53.0456H52.3183C52.9395 53.0456 53.5351 52.806 53.9743 52.3795C54.4135 51.953 54.6602 51.3745 54.6602 50.7713C54.6602 50.1681 54.4135 49.5896 53.9743 49.1631C53.5351 48.7366 52.9395 48.4969 52.3183 48.4969H17.9957C17.3758 48.4987 16.7818 48.7391 16.3441 49.1654C15.9064 49.5918 15.6606 50.1692 15.6606 50.7713V96.9874H2.39446C1.77752 96.9873 1.18565 97.2244 0.74813 97.6469C0.310611 98.0693 0.063005 98.6427 0.0593972 99.2418V147.719C0.0584993 148.018 0.118185 148.314 0.235047 148.59C0.351909 148.866 0.523659 149.117 0.74049 149.329C0.957321 149.541 1.21499 149.709 1.49877 149.824C1.78256 149.939 2.08692 149.999 2.39446 150H152.166C152.789 150 153.386 149.76 153.827 149.332C154.267 148.904 154.515 148.324 154.515 147.719V99.2418C154.515 98.9426 154.454 98.6463 154.336 98.3699C154.218 98.0935 154.045 97.8425 153.827 97.6312C153.608 97.42 153.349 97.2526 153.064 97.1387C152.78 97.0248 152.474 96.9666 152.166 96.9675ZM134.223 56.0759V96.9675H120.971C120.598 96.9676 120.232 97.0537 119.9 97.2186C119.569 97.3834 119.283 97.6223 119.066 97.9156L113.747 105.156L97.6063 90.1776L134.223 56.0759ZM75.6621 107.55C76.0987 107.953 76.678 108.178 77.2803 108.178C77.8826 108.178 78.4619 107.953 78.8985 107.55L94.2266 93.294L110.988 108.889L104.161 118.172H50.4066L43.5789 108.889L60.3409 93.294L75.6621 107.55ZM20.3376 56.0759L56.9612 90.1776L40.8274 105.156L35.5086 97.9156C35.2912 97.6223 35.0051 97.3834 34.6739 97.2186C34.3427 97.0537 33.9759 96.9676 33.6037 96.9675H20.3376V56.0759ZM149.831 145.451H4.73635V101.509H32.3952L47.2932 121.773C47.5106 122.066 47.7968 122.305 48.128 122.47C48.4591 122.635 48.8259 122.721 49.1981 122.721H105.369C105.741 122.722 106.107 122.636 106.437 122.471C106.767 122.306 107.052 122.067 107.267 121.773L122.172 101.509H149.831V145.451ZM53.8273 40.2749C53.4962 39.9588 53.2686 39.5549 53.1732 39.1137C53.0778 38.6725 53.1187 38.2137 53.2909 37.795C53.463 37.3763 53.7587 37.0164 54.1408 36.7604C54.5229 36.5044 54.9744 36.3637 55.4386 36.3561H65.605V2.26762C65.605 1.66443 65.8517 1.08594 66.2909 0.659423C66.7301 0.232903 67.3258 -0.00671387 67.9469 -0.00671387C68.568 -0.00671387 69.1637 0.232903 69.6028 0.659423C70.042 1.08594 70.2888 1.66443 70.2888 2.26762V38.6304C70.2478 42.1248 64.7379 40.6197 61.2899 40.9048L77.3076 55.804L93.3185 40.9048C89.8637 40.5931 84.3674 42.1248 84.3264 38.6304V2.26762C84.3588 1.68653 84.6193 1.13958 85.0543 0.73935C85.4893 0.339116 86.0657 0.116044 86.6649 0.116044C87.2641 0.116044 87.8406 0.339116 88.2756 0.73935C88.7106 1.13958 88.9711 1.68653 89.0034 2.26762V36.3561H99.1288C99.593 36.3637 100.044 36.5044 100.427 36.7604C100.809 37.0164 101.104 37.3763 101.277 37.795C101.449 38.2137 101.49 38.6725 101.394 39.1137C101.299 39.5549 101.071 39.9588 100.74 40.2749L78.8916 60.598C78.4543 60.9995 77.8753 61.2232 77.2735 61.2232C76.6716 61.2232 76.0927 60.9995 75.6553 60.598L53.8273 40.2749Z" fill="black"/>
</g>
<defs>
<clipPath id="clip0_1_477">
<rect width="154.455" height="150" fill="white" transform="translate(0.0594025)"/>
</clipPath>
</defs>
</svg>
