<svg width="1393" height="780" viewBox="0 0 1393 780" fill="none" xmlns="http://www.w3.org/2000/svg">
<path d="M97.9998 357.007C96.9761 358.804 80.8769 370.526 80.4336 372.022C77.7031 381.239 79.231 386.343 83.2559 388.784C81.493 390.392 72.6794 388.37 70.2612 387C69.6778 386.669 68.8835 386.107 67.9852 385.472C65.9256 384.014 63.3195 382.17 61.4558 381.844C48.9788 379.522 46.4007 377.192 49.7608 363.5C51.2492 357.649 56.793 355.511 62.5 353.5C62.8619 353.372 63 353 66.5008 353C70.5008 353 70.5008 352.5 75.7613 353C80.4335 351.765 97.1618 351.018 97.9998 357.007Z" fill="#E8E8E8"/>
<path d="M80.4336 372.022C82.8562 363.845 95.152 349.189 104.143 349.819C105.337 349.919 106.649 350.308 107.823 351.164C111.975 354.166 111.155 357.634 110.15 361.887C109.569 364.345 108.926 367.065 109.145 370.108C110.025 384.347 109.016 389.131 94.744 390.494C83.4429 391.466 75.796 387.676 80.4336 372.022Z" fill="#E8E8E8"/>
<path d="M132.006 369.505C130.663 377.5 130.5 384.5 130.5 388.5C126.499 393.5 122.497 394.05 113.996 391.504C110.742 390.529 108.356 388.717 106.707 386.358C109.532 383.267 109.644 378.225 109.143 370.115C108.924 367.072 109.567 364.352 110.147 361.894C110.811 359.088 97.3734 355.215 96.5 353C100.186 347.649 120 348.496 124.5 348.496C132 349.5 135.706 350.999 136.5 356.5C136.885 359.169 134.192 361.801 133.397 364.248C132.893 365.798 132.347 367.477 132.006 369.505Z" fill="#E8E8E8"/>
<path d="M49.7608 353C60 353 59.972 352.5 62.5 353.5C59.2288 355.324 50.7815 359.488 49.7608 363.5C47.0957 374.36 48.1671 378.072 54.9501 380.302C51.3277 380.51 45.7267 379.464 43.2647 378.484C41.1537 374.491 36.9132 371.004 28.711 368.221C23.0801 364.673 20.5502 364.323 19.5059 365.688C22.5 362.5 22.4997 363 24.5 361C26.5003 359 30 358 30 358C30 358 34 356.75 35.5 356.5C38.5 356 41 354.5 41 354.5C41 354.5 43.9994 353 49.7608 353Z" fill="#E8E8E8"/>
<path opacity="0.7" d="M17.2584 383.572C24.0814 377.724 10.9228 357.011 28.7113 368.221C56.0032 377.48 39.4331 394.538 46.4997 412.083C53.3227 439.618 19.6952 394.781 5.07456 399.899C-9.30241 391.614 18.7205 396 17.2584 383.572Z" fill="#FF9739"/>
<path opacity="0.7" d="M19.4768 404.004C14.0823 400.663 8.92076 398.552 5.07456 399.898C-2.07039 395.781 1.25662 394.793 6.23226 393.316C10.8701 391.939 16.9403 390.136 17.2974 384.978C19.2101 385.319 21.2179 385.812 23.2955 386.419C27.4598 393.883 24.7431 400.593 19.4768 404.004Z" fill="#CA7B2E"/>
<path opacity="0.7" d="M203.337 432.206C202.648 437.819 201.961 443.395 198.574 446.863C186.591 435.653 175.5 426.56 167.147 421.239C153.644 413.059 144.073 410.451 135.728 409.762C130.959 396.41 127.496 381.784 133.764 362.512C135.43 357.312 137.803 353.178 139.826 349.654C140.173 349.049 140.51 348.462 140.831 347.891C141.076 347.891 141.076 347.648 141.076 347.648C137.665 341.799 132.79 332.54 134.739 320.599C136.445 309.147 141.563 300.862 149.847 295.501C159.108 289.896 168.368 290.626 174.216 291.845C174.595 291.086 174.974 290.327 175.238 289.683C200.783 292.294 233.56 302.044 234.89 314.751C235.825 315.347 236.375 316.478 236.923 317.603C237.943 319.702 238.955 321.783 242.444 320.356C248.348 318.548 250.797 323.058 253.266 327.607C255.789 332.257 258.336 336.947 264.617 334.977C276.697 334.038 284.206 344.447 291.706 354.845C299.788 366.049 307.862 377.242 321.639 374.208C323.059 389.009 308.428 387.182 288.925 384.747C268.294 382.171 242.212 378.914 223.924 393.946C220.117 396.121 220.825 399.509 221.54 402.94C222.428 407.199 223.331 411.525 215.638 413.684C205.416 415.266 204.37 423.778 203.337 432.206Z" fill="#84C88C"/>
<g opacity="0.7">
<path d="M598.701 101.046C595.533 93.0048 595.045 82.039 604.549 81.0645L605.183 81.0655L605.779 81.071C606.164 81.0769 606.574 81.0877 606.998 81.1083C607.407 81.1283 607.83 81.157 608.259 81.1987C608.564 81.228 608.871 81.2642 609.179 81.3081C613.008 81.9681 616.766 85.3461 620.528 88.7296C623.711 91.5916 626.897 94.4569 630.135 95.6849C633.628 97.0228 638.934 97.2275 644.609 97.4457C657.54 97.9443 672.387 98.5161 672.049 112.742C671.804 127.607 646.95 132.48 636.227 129.8C624.287 126.876 603.332 112.742 598.701 101.046Z" fill="#C7EAFC"/>
<path d="M461.512 172.688C462.3 174.617 463.231 177.784 464.139 181.843C464.695 184.335 465.243 187.161 465.743 190.244C468.957 210.047 470.211 240.385 459.318 259.924C460.307 259.974 461.319 260.013 462.348 260.047C463.513 260.085 464.7 260.115 465.908 260.143L467.236 260.174C469.8 260.233 472.451 260.293 475.158 260.411L485.636 260.655C510.122 261.625 522.066 273.207 530.105 281.004L530.229 281.124L532.423 283.317C536.808 280.393 542.656 277.956 549.967 277.225C550.414 277.181 550.858 277.145 551.297 277.115C551.646 277.091 551.992 277.073 552.337 277.058C556.982 284.127 561.864 292.039 566.535 300.375C568.242 302.811 568.729 305.004 568.972 307.441C569.637 344.49 544.475 352.768 518.973 361.158C507.073 365.073 495.096 369.014 485.636 375.915C483.442 377.377 481.98 379.57 481.006 382.006C477.35 391.266 467.846 411.248 446.159 423.188C445.42 423.604 444.679 424.003 443.941 424.385C438.533 420.862 432.839 418.465 427.301 416.135C416.007 411.382 405.367 406.903 399.129 393.703C395.638 384.559 390.787 388.685 385.888 392.85C383.607 394.79 381.316 396.738 379.148 397.358C375.477 398.091 372.35 396.254 369.238 394.427C365.118 392.007 361.029 389.605 355.754 393.215C346.584 375.59 350.305 374.143 355.622 372.078C359.347 370.631 363.851 368.88 365.257 361.05C366.719 341.312 341.865 357.395 339.671 368.604C333.533 372.088 327.556 374.029 321.697 374.946C321.682 374.702 321.663 374.461 321.639 374.208C307.862 377.242 299.788 366.049 291.706 354.845C284.206 344.447 276.697 334.038 264.617 334.977C258.336 336.947 255.789 332.257 253.266 327.607C250.797 323.058 248.348 318.548 242.444 320.356C238.955 321.783 237.943 319.702 236.923 317.603C236.375 316.478 235.825 315.347 234.89 314.751C233.56 302.044 200.783 292.294 175.238 289.683C175.314 289.5 175.381 289.327 175.435 289.165L177.872 283.561C179.576 280.149 180.551 275.519 181.525 270.402C184.451 256.269 189.08 234.825 211.987 221.667C231.481 210.457 246.589 209.97 259.016 212.651L259.748 211.92C276.154 193.341 297.815 199.847 305.337 202.106L305.558 202.172L308.239 202.904C308.796 203.043 309.313 203.162 309.792 203.268C310.292 203.378 310.749 203.473 311.163 203.558C311.735 203.676 312.222 203.778 312.625 203.878L313.357 203.147C313.972 202.532 314.596 201.899 315.237 201.247C317.903 198.541 320.881 195.52 324.809 192.182C336.262 182.191 349.176 175.368 360.629 169.52L363.096 168.225C371.438 163.854 379.248 159.76 385.24 154.656C398.573 143.546 411.903 138.919 425.051 140.776L435.533 143.735C446.486 148.516 455.192 158.214 461.512 172.688Z" fill="#C7EAFC"/>
<path d="M588.711 180.485C567.51 181.703 548.016 189.257 527.79 203.39C519.567 209.178 509.535 216.583 505.011 225.845C502.297 231.402 501.565 237.627 504.398 244.572C509.015 256.234 528.65 266.443 529.733 246.938L529.735 246.912L529.741 246.765C533.395 217.768 570.678 207.777 594.803 205.34C598.974 204.915 603.68 205.203 608.505 205.498C617.496 206.048 626.899 206.623 634.035 202.659C649.629 193.887 640.613 188.039 629.405 185.115C614.539 181.459 601.382 179.754 588.711 180.485Z" fill="#C7EAFC"/>
</g>
<path opacity="0.7" d="M110.288 245.196C112.462 253.227 112.192 264.142 104.115 265.019L103.579 265.012L103.077 265.001C102.752 264.991 102.408 264.976 102.051 264.952C101.707 264.928 101.352 264.895 100.993 264.849C100.738 264.817 100.48 264.778 100.224 264.732C97 263.5 97 263 93.5 259.5C92.7075 258.708 92.5 258.5 87.5 256C82.5 253.5 77.5 251 77.5 251C77.5 251 67.468 247.851 62.6948 247.579L71.3356 248.331C60.4579 247.709 47.9706 246.995 49.1385 232.846C50.2675 218.059 71.5366 213.452 80.4157 216.224C90.3065 219.249 107.107 233.515 110.288 245.196Z" fill="#D8F0FD"/>
<path opacity="0.7" d="M443.941 424.385C446.031 425.746 448.078 427.277 450.057 429.036C439.09 439.69 436.004 454.015 433.195 467.042C429.455 484.404 426.21 499.459 405.465 500.433C405.003 501.125 404.72 504.23 404.312 508.678C403 523.034 400.41 551.372 386.458 557.697C374.341 554.235 374.018 568.091 373.745 579.906C373.483 591.147 373.264 600.542 362.968 591.413C363.038 594.245 354.896 606.528 341.88 611.943L341.807 611.903C346.151 614.292 351.303 616.176 357.461 617.155C364.038 618.373 376.467 620.323 387.433 612.038C395.717 605.702 398.153 597.661 399.13 591.081C402.541 591.325 406.194 590.838 409.85 589.375C415.455 587.426 419.841 583.771 422.765 579.141L424.597 579.876C428.794 581.567 432.76 583.163 436.168 584.015C444.396 586.366 451.944 586.902 458.593 587.375L459.316 587.426C462.242 587.67 464.921 587.914 467.602 588.157V588.888C467.357 590.35 467.115 592.056 467.115 593.762C467.013 598.574 468.2 603.127 470.372 607.079C473.415 578.095 495.12 542.805 505.615 537.717C525.239 563.27 541.428 547.191 557.214 531.512C568.676 520.128 579.924 508.955 592.122 514.08C689.592 563.303 677.897 439.758 665.47 360.076C684.253 330.593 674.546 321.085 666.028 312.743C658.637 305.504 652.144 299.144 665.957 281.368L666.171 281.124L662.301 281.124C661.326 277.712 659.865 274.301 657.671 270.889C653.772 264.798 644.269 254.563 625.505 254.075C600.893 254.075 586.517 269.915 578.231 287.459C578.042 287.263 577.852 287.069 577.659 286.877C577.391 290.171 577.174 293.611 577.012 297.206C575.931 291.746 574.79 287.186 573.618 283.379C567.965 279.169 561.024 276.691 552.337 277.058C556.983 284.127 561.864 292.039 566.536 300.375C568.242 302.811 568.73 305.004 568.972 307.441C569.637 344.49 544.475 352.768 518.974 361.158C507.073 365.073 495.096 369.013 485.636 375.915C483.442 377.377 481.981 379.57 481.006 382.006C477.35 391.266 467.847 411.248 446.159 423.188C445.421 423.604 444.68 424.003 443.941 424.385Z" fill="#ABD25E"/>
<path opacity="0.7" d="M169.448 597.724C171.076 552.838 152.301 503.199 102.817 514.567C89.3829 534.801 83.512 533.136 72.7576 530.085C70.7638 529.519 68.6022 528.906 66.1934 528.376C66.9674 529.518 67.7277 530.6 68.4588 531.624C68.7524 532.043 69.046 532.456 69.3371 532.864C70.7373 534.83 72.0799 536.715 73.0886 538.934C75.6824 544.593 77.8198 552.078 80.1632 560.284L80.3989 561.109C80.8621 562.697 81.3074 564.285 81.7444 565.844C82.9167 570.026 84.0299 573.996 85.2725 577.191C85.7598 579.385 86.0036 582.796 86.2472 586.451L86.2772 586.79C87.9852 606.077 90.803 637.896 119.631 642.741C151.95 648.247 164.042 613.3 168.385 600.748C168.462 600.524 168.537 600.307 168.61 600.097L169.448 597.724Z" fill="#ED8686"/>
<g opacity="0.7">
<path d="M1041.34 693.383C998.886 562.655 967.714 582.072 944.189 596.725C921.552 610.825 905.996 620.514 894.282 487.763C860.833 480.497 866.492 442.772 872.253 404.368C875.768 380.943 879.32 357.266 874.057 340.094C896.719 329.616 929.128 301.593 910.609 267.234C907.578 257.755 905.855 250.707 904.559 245.643C899.078 246.976 894.064 249.264 889.653 251.882C882.343 256.269 877.957 260.655 873.57 265.285C871.378 265.772 869.184 266.259 866.991 266.503C868.697 258.462 868.209 248.715 862.605 238.724C852.158 220.502 833.232 218.51 823.943 217.533L823.86 217.524C823.338 217.524 822.816 217.454 822.331 217.389C821.911 217.333 821.519 217.28 821.18 217.28C821.058 217.28 820.997 217.219 820.936 217.158C820.875 217.098 820.814 217.037 820.693 217.037L820.626 216.981C816.23 213.318 808.697 207.04 797.787 205.827C780.729 203.878 767.327 211.432 758.555 229.464C756.849 231.414 752.463 232.632 745.396 234.094C744.944 234.204 744.486 234.315 744.023 234.426C735.256 236.545 724.621 239.115 714.205 246.522C704.825 253.016 700.43 261.409 697.74 266.547L697.635 266.747C697.514 266.991 697.453 267.173 697.392 267.356C697.331 267.539 697.27 267.722 697.148 267.965H696.904C695.213 268.273 693.424 268.677 691.478 269.118C690.34 269.375 689.147 269.645 687.888 269.915C679.116 272.351 673.024 276.981 667.663 281.124H666.172C666.101 281.206 666.029 281.288 665.957 281.368C652.144 299.144 658.637 305.504 666.029 312.743C674.546 321.084 684.255 330.593 665.47 360.075C677.897 439.758 689.593 563.302 592.123 514.08C579.925 508.955 568.676 520.128 557.214 531.511C541.429 547.19 525.24 563.269 505.617 537.716C495.121 542.805 473.417 578.095 470.373 607.079C473.37 612.534 478.239 616.844 484.174 619.104L484.176 619.108C485.638 621.056 487.099 623.004 488.073 624.709C489.779 629.339 492.946 633.481 497.333 636.649C507.567 643.96 518.045 643.96 526.817 642.01C527.061 649.564 527.548 655.9 528.767 661.261L529.498 664.672C531.691 674.907 535.346 691.964 551.429 703.173C556.79 706.828 563.369 708.29 569.461 707.803C570.407 708.229 571.417 708.673 572.449 709.126C576.732 711.009 581.387 713.055 583.351 714.626C586.275 716.819 588.955 720.23 592.123 724.373C592.331 724.64 592.542 724.91 592.755 725.183C598.773 732.9 606.773 743.159 621.364 750.69C650.606 765.798 671.562 755.564 686.914 748.01C690.081 746.548 702.021 741.187 713.231 746.791C717.861 749.228 722.978 751.665 728.826 753.858L729.209 754.005C737.861 757.319 762.513 766.761 782.435 749.959C783.41 749.228 784.872 748.497 786.821 748.01C797.441 744.77 821.09 744.987 836.163 745.125C841.496 745.174 845.755 745.213 847.984 745.086C849.934 744.842 867.722 747.035 875.52 749.472L876.216 749.684C890.47 754.036 908.003 759.388 927.423 754.833C943.993 750.934 954.959 741.674 962.756 734.851C970.554 728.028 972.747 727.541 975.671 727.053C993.146 727.49 1027.26 728.319 1041.34 693.383Z" fill="#F0C086"/>
<path d="M734.187 156.605C734.187 148.076 743.69 130.531 754.656 128.582C756.118 128.338 757.824 128.338 759.529 128.825C765.552 130.524 765.801 134.083 766.105 138.446C766.281 140.968 766.476 143.758 767.814 146.614C773.906 160.016 774.394 164.89 757.824 170.251C744.665 174.393 734.187 172.931 734.187 156.605Z" fill="#F0C086"/>
<path d="M771.47 194.375C755.631 187.552 774.394 163.915 786.578 163.915C788.283 163.915 789.989 164.402 791.207 165.377C808.021 179.023 786.334 200.954 771.47 194.375Z" fill="#F0C086"/>
</g>
<g opacity="0.7">
<path d="M904.559 245.643C918.459 242.259 935.356 245.014 953.009 264.066C953.159 263.842 953.284 263.619 953.401 263.395C953.477 263.253 953.548 263.111 953.62 262.969L953.837 262.542C953.953 262.319 954.081 262.096 954.229 261.873C953.254 251.639 952.767 235.556 967.143 220.691C984.932 202.416 1006.13 201.928 1020.27 201.685C1021.91 201.685 1023.55 201.685 1025.19 201.629C1025.64 201.614 1026.08 201.594 1026.53 201.569C1026.82 201.554 1027.11 201.535 1027.4 201.514C1027.7 201.492 1028 201.468 1028.31 201.441H1029.77L1029.95 201.035C1032.39 195.667 1036.06 187.582 1043.9 179.266C1056.4 165.568 1071.74 163.957 1081.04 162.98L1081.43 162.94L1082.94 162.777C1084.73 162.588 1086.52 162.398 1087.28 162.209C1091.66 155.873 1094.59 144.664 1097.76 131.749C1102.39 113.474 1107.75 92.5172 1124.07 74.7288C1131.98 65.892 1140.99 59.7179 1149.22 54.0892L1150.39 53.2851C1157.7 48.4116 1163.79 44.2691 1167.93 39.3956L1168.25 38.9636C1168.42 38.7221 1168.61 38.4692 1168.81 38.205C1169.19 37.6988 1169.6 37.1524 1170.05 36.5736L1170.12 36.4729L1170.28 36.2666C1170.76 35.6315 1171.28 34.9612 1171.8 34.2649L1172.49 33.3337L1173.05 32.5724C1185.23 16.4895 1197.91 0.163574 1215.45 0.894515C1217.89 1.13816 1220.57 1.38181 1224.22 1.38181C1232.51 4.06247 1241.52 11.3724 1243.96 24.0437C1244.08 24.1655 1244.27 24.2267 1244.45 24.2873C1244.63 24.3485 1244.81 24.4092 1244.94 24.531C1245.33 24.7665 1245.74 25.0074 1246.17 25.2571L1246.2 25.2765C1249.76 27.3551 1254.41 30.0748 1258.09 35.4967C1265.89 47.1929 1274.91 70.0989 1247.13 92.7608C1246.64 93.0045 1246.4 93.2481 1246.15 93.4918C1251.03 93.979 1256.15 94.4663 1258.58 94.4663C1263.45 94.71 1267.36 94.9542 1269.55 95.4415C1285.87 98.3652 1292.7 107.381 1295.62 114.448C1301.92 129.465 1293.29 142.074 1290.07 146.772L1290.02 146.857C1289.53 147.345 1289.04 148.076 1288.55 148.807L1290.13 151.717L1291.3 153.863L1293.43 157.823C1300.25 170.25 1308.78 186.089 1308.29 202.903C1307.8 215.33 1303.42 231.17 1285.14 238.236L1285.09 238.553C1284.61 241.71 1283.91 246.25 1283.44 252.613C1282.22 264.066 1293.43 277.225 1303.17 280.636C1316.58 285.266 1339 293.307 1352.15 316.944C1356.25 323.994 1358 331.043 1359.41 336.706L1359.42 336.747L1359.43 336.78L1359.71 337.9C1360.44 341.068 1361.17 343.992 1361.9 345.454C1362.5 347.247 1363.59 348.714 1364.63 350.122L1364.88 350.469L1365.31 351.059C1368.24 355.201 1371.89 360.562 1374.57 367.142C1375.43 368.866 1376.78 370.469 1378.11 372.035C1378.65 372.683 1379.19 373.324 1379.69 373.965C1385.78 381.519 1401.38 401.256 1386.03 420.263C1362.34 449.026 1294.06 403.228 1292.24 402.008L1292.21 401.988C1271.74 386.88 1266.38 366.167 1262.48 350.815L1262.09 349.385L1262.07 349.344L1262.06 349.303L1262.05 349.264L1262.04 349.229C1260.26 342.769 1258.63 336.821 1256.15 332.54C1252.25 325.717 1247.62 319.383 1242.99 313.045L1241.4 310.815L1238.1 306.122C1237.38 305.113 1236.66 304.095 1235.92 303.054C1232.51 305.248 1229.1 306.709 1225.93 307.928C1226.04 308.269 1226.17 308.61 1226.3 308.952C1226.46 309.342 1226.62 309.732 1226.78 310.122C1226.94 310.489 1227.09 310.856 1227.23 311.223C1227.38 311.587 1227.51 311.951 1227.64 312.314L1227.89 312.928C1232.55 324.192 1240.1 342.447 1228.85 364.461C1221.54 378.838 1209.6 387.854 1199.86 395.165C1199.3 395.612 1198.74 396.052 1198.18 396.487L1196.55 397.758C1192.89 400.606 1189.55 403.197 1187.67 405.643C1179.63 415.39 1174.51 428.548 1171.1 446.824C1170.97 447.616 1170.8 448.515 1170.6 449.516L1170.2 451.49L1169.75 453.598L1169.43 455.086L1168.96 457.28L1168.84 457.805L1168.83 457.871L1168.42 459.739C1166.96 466.318 1163.79 480.695 1161.6 493.61C1175.98 479.477 1191.08 479.233 1199.37 480.452C1223 483.863 1244.69 507.5 1263.45 550.143C1278.32 584.014 1285.39 625.927 1284.41 675.15C1284.17 694.888 1281.73 717.55 1267.6 736.313C1267.36 736.8 1233.48 779.2 1209.12 779.2C1177.68 779.2 1173.29 740.699 1171.1 719.987C1168.42 699.274 1176.71 686.846 1181.58 679.536L1181.82 679.292C1164.52 686.846 1141.62 689.283 1125.53 683.922C1102.37 676.36 1087.69 662.837 1075.71 651.804L1074.61 650.782L1073.24 649.518C1067.49 644.2 1062.5 639.586 1057.3 636.649C1054.38 635.187 1048.29 634.943 1043.41 635.674C1043.41 635.796 1043.47 635.918 1043.54 636.04C1043.6 636.161 1043.66 636.283 1043.66 636.405C1049.99 653.95 1046.58 674.175 1045.36 679.78C1044.33 684.829 1042.97 689.345 1041.34 693.383C998.886 562.655 967.715 582.071 944.19 596.724C921.552 610.825 905.997 620.514 894.283 487.762C860.833 480.497 866.494 442.772 872.255 404.368C875.768 380.943 879.32 357.266 874.059 340.094C896.719 329.616 929.13 301.593 910.61 267.234C907.578 257.755 905.856 250.706 904.559 245.643Z" fill="#B3ACE2"/>
<path d="M1098.97 46.2183C1087.28 46.9492 1087.76 70.8299 1094.1 78.384C1107.01 83.5011 1114.57 51.8232 1104.82 47.4371C1102.63 46.4619 1100.68 46.2183 1098.97 46.2183Z" fill="#B3ACE2"/>
<path d="M954.473 192.181C930.349 167.813 1002.23 137.841 1023.92 142.227C1026.84 142.958 1029.04 144.177 1030.01 146.37C1031.88 153.164 1021.32 158.182 1012.93 162.167C1009.29 163.899 1006.05 165.436 1004.43 166.839C1001.05 169.684 998.639 173.805 996.216 177.941C993.034 183.369 989.838 188.822 984.445 191.45C979.12 193.986 973.924 193.025 968.759 192.069C963.998 191.188 959.264 190.311 954.473 192.181Z" fill="#B3ACE2"/>
<path d="M1366.04 464.613C1363.85 464.613 1361.41 465.344 1358.73 467.293C1364.34 469.973 1368.97 487.762 1370.43 494.585C1371.31 498.987 1371.15 503.389 1370.99 507.79V507.821C1370.85 511.938 1370.7 516.054 1371.4 520.171C1372.04 523.753 1373.29 527.268 1374.54 530.787L1374.55 530.806L1374.55 530.828L1374.56 530.851L1375.19 532.642C1375.62 533.85 1376.03 535.059 1376.4 536.274C1376.82 537.641 1377.2 539.013 1377.5 540.396L1377.62 541.003L1377.92 542.556L1377.99 542.918C1379.54 551.004 1382.29 565.438 1389.92 550.387C1393.82 542.833 1385.78 524.07 1380.18 518.465C1386.76 507.743 1381.64 464.856 1366.04 464.613Z" fill="#B3ACE2"/>
<path d="M1260.29 514.567C1261.26 511.886 1262.48 510.18 1264.19 509.449C1273.43 505.406 1292.25 528.286 1302.87 541.195C1305.69 544.625 1307.94 547.351 1309.27 548.681C1309.42 548.826 1309.59 548.973 1309.76 549.123L1310.13 549.433C1310.61 549.838 1311.15 550.264 1311.74 550.708C1313.33 551.912 1315.25 553.253 1317.32 554.693C1325.33 560.276 1335.45 567.332 1336.31 573.536C1337.28 581.012 1333.38 580.623 1329.02 580.188C1325.7 579.857 1322.13 579.501 1320.23 582.553C1314.45 591.719 1328.55 598.767 1337.08 603.03L1338.08 603.53L1338.99 603.991C1340.07 604.539 1340.99 605.029 1341.67 605.458C1342.22 605.768 1342.91 606.127 1343.7 606.532L1343.76 606.561C1347.93 608.708 1354.59 612.139 1354.59 616.424C1354.59 623.335 1351.04 621.793 1348.62 620.745C1348.18 620.552 1347.77 620.376 1347.44 620.273C1347.28 620.224 1347.14 620.192 1347.01 620.181C1346.81 620.162 1346.65 620.2 1346.55 620.322C1344.83 622.325 1343.68 624.726 1342.62 626.947C1340.06 632.293 1338 636.596 1329.74 631.775C1325.47 629.314 1322.86 622.21 1320.57 615.973C1319.46 612.949 1318.42 610.128 1317.31 608.139C1309.14 593.309 1299.27 579.733 1289.4 566.163L1289.36 566.107L1289.33 566.064C1284.79 559.822 1280.25 553.581 1275.88 547.219C1275.36 546.414 1274.7 545.489 1273.97 544.469C1273.51 543.829 1273.02 543.151 1272.5 542.441C1266.61 534.345 1257.71 522.11 1260.29 514.567Z" fill="#B3ACE2"/>
<path d="M1374.82 560.865C1371.4 561.596 1363.12 617.642 1366.04 618.617C1379.93 623.003 1393.58 565.495 1374.82 560.865Z" fill="#B3ACE2"/>
</g>
<path opacity="0.7" d="M274.052 539.692C254.036 499.442 195.186 439.095 167.148 421.239C153.645 413.059 144.074 410.451 135.729 409.762C135.966 410.423 136.204 411.08 136.446 411.735C136.535 411.912 136.615 412.089 136.689 412.265C136.927 412.828 137.096 413.376 137.245 413.86L137.271 413.945C137.285 413.989 137.298 414.032 137.312 414.074C137.349 414.192 137.384 414.306 137.421 414.415C132.548 413.44 126.211 412.466 119.389 413.684C109.398 415.146 102.331 419.776 96.2392 424.406C95.9966 424.406 95.7519 424.345 95.5093 424.284L95.5029 424.283C95.2603 424.222 95.0199 424.162 94.7773 424.162L94.6127 424.126C88.921 422.888 76.1409 420.108 64.3181 429.036C51.4038 439.027 50.6717 454.866 50.427 462.663C50.1845 469.243 49.6972 492.148 57.2513 511.643C59.7852 518.27 63.0988 523.807 66.1937 528.376C68.5963 528.905 70.7531 529.516 72.7438 530.081L72.7581 530.085C83.5128 533.136 89.3827 534.801 102.817 514.567C152.302 503.199 171.077 552.838 169.448 597.724L170.074 595.955C170.567 594.871 171.099 593.588 171.64 592.283L171.698 592.142C172.474 590.264 173.264 588.355 173.972 586.939C174.094 586.939 174.217 587 174.338 587.061C174.46 587.122 174.581 587.182 174.704 587.182C181.039 589.132 194.441 593.031 209.549 585.72C233.429 573.78 234.893 549.413 235.623 535.279C235.623 534.792 235.683 534.365 235.744 533.939C235.807 533.512 235.867 533.086 235.867 532.599C243.177 535.279 251.95 535.767 263.645 530.406C265.594 529.918 266.814 529.675 266.814 529.675C268.564 530.947 271.247 534.919 274.052 539.692Z" fill="#F9A98F"/>
<path opacity="0.7" fill-rule="evenodd" clip-rule="evenodd" d="M198.574 446.862C226.808 473.273 259.999 511.435 274.051 539.693C271.247 534.919 268.563 530.947 266.813 529.675C266.813 529.675 266.813 529.675 266.812 529.675C269.494 531.625 274.366 539.91 278.509 547.707C286.982 562.477 298.104 570.51 306.85 576.827L306.857 576.832L307.019 576.948C313.354 581.334 317.252 584.258 319.689 588.157L321.395 590.838C325.227 596.931 331.046 606.011 341.879 611.943C354.895 606.528 363.036 594.245 362.967 591.413C373.263 600.541 373.482 591.148 373.744 579.906V579.906C374.017 568.091 374.339 554.235 386.457 557.697C400.408 551.373 402.998 523.037 404.311 508.681L404.311 508.678L404.313 508.66C404.719 504.222 405.003 501.124 405.463 500.433C426.209 499.459 429.453 484.404 433.194 467.042L433.196 467.028C436.005 454.006 439.093 439.686 450.056 429.036C442.957 422.724 434.978 419.366 427.301 416.135C416.006 411.382 405.366 406.903 399.128 393.703C395.638 384.56 390.787 388.684 385.889 392.848L385.887 392.85C383.607 394.79 381.315 396.738 379.147 397.357C375.478 398.091 372.352 396.256 369.241 394.43L369.237 394.427C365.117 392.007 361.029 389.605 355.753 393.215C346.583 375.59 350.304 374.143 355.621 372.077C359.346 370.63 363.851 368.879 365.256 361.05C366.718 341.312 341.864 357.394 339.67 368.604C333.532 372.088 327.555 374.029 321.696 374.945C322.563 388.947 308.098 387.141 288.925 384.747L288.924 384.747L288.924 384.747C268.293 382.171 242.211 378.914 223.923 393.946C220.118 396.12 220.823 399.504 221.538 402.934L221.539 402.94L221.539 402.942C222.427 407.2 223.329 411.525 215.637 413.684C205.415 415.266 204.369 423.778 203.336 432.206C202.647 437.818 201.961 443.394 198.574 446.862Z" fill="#FFDF7C"/>
</svg>
